<svg width="22" height="23" viewBox="0 0 22 23" fill="none" xmlns="http://www.w3.org/2000/svg">
<path d="M9.60421 10.1042C9.2326 10.4739 9.02281 10.9759 9.02087 11.5001C9.02087 12.025 9.22939 12.5284 9.60056 12.8996C9.97172 13.2707 10.4751 13.4792 11 13.4792C11.5242 13.4773 12.0262 13.2675 12.3959 12.8959" stroke="black" stroke-width="1.5" stroke-linecap="round" stroke-linejoin="round"/>
<path d="M11 5.5625C9.82568 5.5625 8.67772 5.91073 7.7013 6.56315C6.72489 7.21557 5.96386 8.14288 5.51447 9.22782C5.06507 10.3128 4.94749 11.5066 5.17659 12.6583C5.40569 13.8101 5.97118 14.8681 6.80156 15.6984C7.63193 16.5288 8.68989 17.0943 9.84165 17.3234C10.9934 17.5525 12.1872 17.4349 13.2722 16.9855C14.3571 16.5361 15.2844 15.7751 15.9369 14.7987C16.5893 13.8223 16.9375 12.6743 16.9375 11.5" stroke="black" stroke-width="1.5" stroke-linecap="round" stroke-linejoin="round"/>
<path d="M11 1.60425C9.04281 1.60425 7.12956 2.18463 5.50219 3.272C3.87483 4.35936 2.60646 5.90488 1.85747 7.71311C1.10847 9.52134 0.912504 11.5111 1.29434 13.4307C1.67617 15.3503 2.61866 17.1135 4.00261 18.4975C5.38657 19.8815 7.14984 20.8239 9.06944 21.2058C10.989 21.5876 12.9788 21.3916 14.787 20.6426C16.5952 19.8936 18.1407 18.6253 19.2281 16.9979C20.3155 15.3706 20.8959 13.4573 20.8959 11.5001M14.6719 7.82925L11.9896 10.5105" stroke="black" stroke-width="1.5" stroke-linecap="round" stroke-linejoin="round"/>
<path d="M20.3125 5.08761L16.9375 5.56261L17.4125 2.18761C17.416 2.14841 17.4077 2.10906 17.3888 2.07459C17.3698 2.04012 17.3409 2.01209 17.3059 1.99409C17.2709 1.97608 17.2314 1.96893 17.1923 1.97352C17.1532 1.97812 17.1164 1.99427 17.0865 2.0199L14.849 4.24594C14.6192 4.47742 14.4501 4.76212 14.3569 5.0747C14.2637 5.38728 14.2492 5.71806 14.3146 6.03761L14.6709 7.82928L16.4625 8.18448C16.7821 8.24995 17.1129 8.23543 17.4255 8.1422C17.738 8.04897 18.0227 7.87993 18.2542 7.65011L20.4792 5.41365C20.5049 5.38372 20.5211 5.34679 20.5257 5.30759C20.5303 5.26839 20.523 5.22872 20.5049 5.19367C20.4867 5.15862 20.4585 5.1298 20.4239 5.1109C20.3893 5.092 20.3497 5.08389 20.3105 5.08761" stroke="black" stroke-width="1.5" stroke-linecap="round" stroke-linejoin="round"/>
</svg>
