<svg width="22" height="15" viewBox="0 0 22 15" fill="none" xmlns="http://www.w3.org/2000/svg">
<path fill-rule="evenodd" clip-rule="evenodd" d="M0.0625 1.25C0.0625 1.00136 0.161272 0.762903 0.337087 0.587087C0.512903 0.411272 0.75136 0.3125 1 0.3125H21C21.2486 0.3125 21.4871 0.411272 21.6629 0.587087C21.8387 0.762903 21.9375 1.00136 21.9375 1.25C21.9375 1.49864 21.8387 1.7371 21.6629 1.91291C21.4871 2.08873 21.2486 2.1875 21 2.1875H1C0.75136 2.1875 0.512903 2.08873 0.337087 1.91291C0.161272 1.7371 0.0625 1.49864 0.0625 1.25ZM0.0625 7.5C0.0625 7.25136 0.161272 7.0129 0.337087 6.83709C0.512903 6.66127 0.75136 6.5625 1 6.5625H14.75C14.9986 6.5625 15.2371 6.66127 15.4129 6.83709C15.5887 7.0129 15.6875 7.25136 15.6875 7.5C15.6875 7.74864 15.5887 7.9871 15.4129 8.16291C15.2371 8.33873 14.9986 8.4375 14.75 8.4375H1C0.75136 8.4375 0.512903 8.33873 0.337087 8.16291C0.161272 7.9871 0.0625 7.74864 0.0625 7.5ZM0.0625 13.75C0.0625 13.5014 0.161272 13.2629 0.337087 13.0871C0.512903 12.9113 0.75136 12.8125 1 12.8125H7.25C7.49864 12.8125 7.7371 12.9113 7.91291 13.0871C8.08873 13.2629 8.1875 13.5014 8.1875 13.75C8.1875 13.9986 8.08873 14.2371 7.91291 14.4129C7.7371 14.5887 7.49864 14.6875 7.25 14.6875H1C0.75136 14.6875 0.512903 14.5887 0.337087 14.4129C0.161272 14.2371 0.0625 13.9986 0.0625 13.75Z" fill="black"/>
</svg>
